<mxfile host="65bd71144e">
    <diagram id="35AmDSvmOC7etBG4h-Q4" name="Page-1">
        <mxGraphModel dx="519" dy="617" grid="1" gridSize="10" guides="1" tooltips="1" connect="1" arrows="1" fold="1" page="1" pageScale="1" pageWidth="827" pageHeight="1169" math="0" shadow="0">
            <root>
                <mxCell id="0"/>
                <mxCell id="1" parent="0"/>
                <mxCell id="2" value="&amp;lt;abstract&amp;gt;&lt;br&gt;Sandwich" style="rounded=0;whiteSpace=wrap;html=1;" parent="1" vertex="1">
                    <mxGeometry x="304" y="80" width="226" height="40" as="geometry"/>
                </mxCell>
                <mxCell id="3" value="+makeSandwich(): void&lt;br&gt;+cutBread(): void&lt;br&gt;+putBred(): void&lt;br&gt;+addMeat(): void&lt;br&gt;+addCheese(): void&lt;br&gt;+addVegetables(): void&lt;br&gt;+&lt;i&gt;customerWantsMeat&lt;/i&gt;(): boolean&lt;br&gt;+&lt;i&gt;customerWantsCheese&lt;/i&gt;(): boolean&lt;br&gt;+&lt;i&gt;customerWantsVegetables&lt;/i&gt;(): boolean&lt;br&gt;+&lt;i&gt;wrapTheSandwich&lt;/i&gt;(): void" style="rounded=0;whiteSpace=wrap;html=1;align=left;" parent="1" vertex="1">
                    <mxGeometry x="304" y="200" width="226" height="160" as="geometry"/>
                </mxCell>
                <mxCell id="5" value="ItalianSandwich" style="rounded=0;whiteSpace=wrap;html=1;" parent="1" vertex="1">
                    <mxGeometry x="180" y="452.93" width="220" height="40" as="geometry"/>
                </mxCell>
                <mxCell id="6" value="+customerWantsMeat(): boolean&lt;br&gt;+customerWantsCheese(): boolean&lt;br&gt;+customerWantsVegetables(): boolean&lt;br&gt;+wrapTheSandwich(): void" style="rounded=0;whiteSpace=wrap;html=1;align=left;" parent="1" vertex="1">
                    <mxGeometry x="180" y="492.93" width="220" height="77.07" as="geometry"/>
                </mxCell>
                <mxCell id="9" value="" style="endArrow=none;html=1;entryX=0.5;entryY=0;entryDx=0;entryDy=0;exitX=0.5;exitY=0;exitDx=0;exitDy=0;" parent="1" source="5" edge="1">
                    <mxGeometry width="50" height="50" relative="1" as="geometry">
                        <mxPoint x="280" y="452.93" as="sourcePoint"/>
                        <mxPoint x="530" y="452.93000000000006" as="targetPoint"/>
                        <Array as="points">
                            <mxPoint x="290" y="430"/>
                            <mxPoint x="530" y="430"/>
                        </Array>
                    </mxGeometry>
                </mxCell>
                <mxCell id="12" value="" style="endArrow=none;html=1;exitX=0;exitY=0.5;exitDx=0;exitDy=0;" parent="1" source="13" edge="1">
                    <mxGeometry width="50" height="50" relative="1" as="geometry">
                        <mxPoint x="400" y="378" as="sourcePoint"/>
                        <mxPoint x="414" y="431" as="targetPoint"/>
                        <Array as="points"/>
                    </mxGeometry>
                </mxCell>
                <mxCell id="13" value="" style="triangle;whiteSpace=wrap;html=1;rotation=-90;" parent="1" vertex="1">
                    <mxGeometry x="406" y="360" width="16" height="20" as="geometry"/>
                </mxCell>
                <mxCell id="14" value="+meat: Array&amp;lt;string&amp;gt;&lt;br&gt;+cheese: Array&amp;lt;string&amp;gt;&lt;br&gt;+vegetables: Array&amp;lt;string&amp;gt;" style="rounded=0;whiteSpace=wrap;html=1;" vertex="1" parent="1">
                    <mxGeometry x="304" y="120" width="226" height="80" as="geometry"/>
                </mxCell>
                <mxCell id="16" value="VegetarianSandwich" style="rounded=0;whiteSpace=wrap;html=1;" vertex="1" parent="1">
                    <mxGeometry x="430" y="452.93" width="220" height="40" as="geometry"/>
                </mxCell>
                <mxCell id="17" value="+customerWantsMeat(): boolean&lt;br&gt;+customerWantsCheese(): boolean&lt;br&gt;+customerWantsVegetables(): boolean&lt;br&gt;+wrapTheSandwich(): void" style="rounded=0;whiteSpace=wrap;html=1;align=left;" vertex="1" parent="1">
                    <mxGeometry x="430" y="492.93" width="220" height="77.07" as="geometry"/>
                </mxCell>
            </root>
        </mxGraphModel>
    </diagram>
</mxfile>